<svg width="40" height="40" viewBox="0 0 40 40" fill="none" xmlns="http://www.w3.org/2000/svg">
<rect width="40" height="40" rx="20" fill="white"/>
<path d="M21.1847 14.1546C21.1847 14.3835 21.1847 15.1295 21.1847 16.1893H24.8286L24.4335 19.4376H21.1847C21.1847 24.4471 21.1847 31.16 21.1847 31.16H16.8725C16.8725 31.16 16.8725 24.5359 16.8725 19.4376H14.6255V16.1893H16.8725C16.8725 14.9012 16.8725 13.9852 16.8725 13.7301C16.8725 12.515 16.7809 11.9384 17.2972 10.9968C17.8138 10.0552 19.271 8.81059 21.7912 8.84056C24.3121 8.87161 25.3746 9.11412 25.3746 9.11412L24.8286 12.576C24.8286 12.576 23.2189 12.1509 22.4288 12.3024C21.6397 12.4539 21.1847 12.94 21.1847 14.1546Z" fill="#171717"/>
</svg>
