<svg width="24" height="20" viewBox="0 0 24 20" fill="none" xmlns="http://www.w3.org/2000/svg">
<path d="M21.5243 5.11503C21.5338 5.32601 21.5386 5.53798 21.5386 5.75089C21.5386 12.245 16.5951 19.733 7.557 19.733C4.78158 19.733 2.19816 18.9194 0.0234375 17.525C0.408375 17.5706 0.799031 17.5939 1.19587 17.5939C3.49842 17.5939 5.61703 16.8083 7.29942 15.49C5.14847 15.4505 3.33398 14.0296 2.70858 12.0773C3.00895 12.1348 3.31645 12.1657 3.63342 12.1657C4.08108 12.1657 4.51542 12.1054 4.92797 11.9932C2.68008 11.5416 0.985781 9.55564 0.985781 7.17467C0.985781 7.15376 0.985781 7.13333 0.986297 7.11289C1.64878 7.48072 2.40633 7.70173 3.2123 7.72737C1.89352 6.84631 1.02619 5.34214 1.02619 3.63697C1.02619 2.7364 1.26806 1.89237 1.69148 1.16665C4.11525 4.13975 7.73559 6.09584 11.8199 6.30115C11.7362 5.94139 11.6925 5.56643 11.6925 5.18103C11.6925 2.46739 13.8928 0.267029 16.6065 0.267029C18.0208 0.267029 19.2973 0.863935 20.1936 1.81868C21.3133 1.59865 22.3645 1.18948 23.314 0.626279C22.9471 1.77401 22.1686 2.73683 21.1536 3.34512C22.1477 3.22629 23.0954 2.96211 23.9765 2.57145C23.3178 3.55667 22.4843 4.42208 21.5243 5.11503Z" fill="#171717"/>
</svg>
